<svg xmlns="http://www.w3.org/2000/svg" width="40" height="40" viewBox="0 0 40 40"><defs><style>.a{fill:#8a56ac;}.b{opacity:0.796;}.c{fill:none;stroke:#fff;stroke-linecap:round;stroke-linejoin:round;stroke-width:1.5px;}</style></defs><g transform="translate(-16 -157)"><g transform="translate(-76 -57)"><path class="a" d="M20,0A20,20,0,1,1,0,20,20,20,0,0,1,20,0Z" transform="translate(92 214)"/></g><g class="b" transform="translate(26.5 167.69)"><path class="c" d="M13.9,16.452a3.452,3.452,0,0,0-6.9,0" transform="translate(-1.857 -3.405)"/><line class="c" y2="4.833" transform="translate(8.595 2)"/><line class="c" x2="0.98" y2="0.98" transform="translate(3.223 7.676)"/><line class="c" x2="1.381" transform="translate(1 13.048)"/><line class="c" x2="1.381" transform="translate(14.809 13.048)"/><line class="c" y1="0.98" x2="0.98" transform="translate(12.987 7.676)"/><line class="c" x1="15.19" transform="translate(1 15.809)"/><path class="c" d="M8,4.762,10.762,2l2.762,2.762" transform="translate(-2.167)"/></g></g></svg>