<svg xmlns="http://www.w3.org/2000/svg" width="19.641" height="22" viewBox="0 0 19.641 22"><defs><style>.a{fill:#2e2323;fill-rule:evenodd;}</style></defs><path class="a" d="M1.445,13.946a6.435,6.435,0,0,1,4.121-2.063c1.291.036,1.361,1.375,4.317,1.375S12.932,11.884,14,11.884a7.465,7.465,0,0,1,4.219,2.063,18.458,18.458,0,0,1,1.446,2.142A11.117,11.117,0,0,1,9.785,22,11.127,11.127,0,0,1,.027,16.328,5.483,5.483,0,0,1,1.445,13.946ZM9.686,0A5.7,5.7,0,1,1,4,5.7,5.7,5.7,0,0,1,9.686,0Z" transform="translate(-0.027 0)"/></svg>